<mxfile host="app.diagrams.net" modified="2023-09-09T17:13:12.770Z" agent="Mozilla/5.0 (Windows NT 10.0; Win64; x64) AppleWebKit/537.36 (KHTML, like Gecko) Chrome/116.0.0.0 Safari/537.36" etag="4jXkvsmZLo-TDNNge_FJ" version="21.7.4" type="github">
  <diagram id="C5RBs43oDa-KdzZeNtuy" name="Main Idea">
    <mxGraphModel dx="1434" dy="782" grid="1" gridSize="10" guides="1" tooltips="1" connect="1" arrows="1" fold="1" page="1" pageScale="1" pageWidth="827" pageHeight="1169" math="0" shadow="0">
      <root>
        <mxCell id="WIyWlLk6GJQsqaUBKTNV-0" />
        <mxCell id="WIyWlLk6GJQsqaUBKTNV-1" parent="WIyWlLk6GJQsqaUBKTNV-0" />
        <mxCell id="WIyWlLk6GJQsqaUBKTNV-2" value="" style="rounded=0;html=1;jettySize=auto;orthogonalLoop=1;fontSize=11;endArrow=block;endFill=0;endSize=8;strokeWidth=1;shadow=0;labelBackgroundColor=none;edgeStyle=orthogonalEdgeStyle;" parent="WIyWlLk6GJQsqaUBKTNV-1" source="WIyWlLk6GJQsqaUBKTNV-3" target="WIyWlLk6GJQsqaUBKTNV-6" edge="1">
          <mxGeometry relative="1" as="geometry" />
        </mxCell>
        <mxCell id="WIyWlLk6GJQsqaUBKTNV-3" value="Start" style="rounded=1;whiteSpace=wrap;html=1;fontSize=12;glass=0;strokeWidth=1;shadow=0;" parent="WIyWlLk6GJQsqaUBKTNV-1" vertex="1">
          <mxGeometry x="350" y="357" width="120" height="40" as="geometry" />
        </mxCell>
        <mxCell id="rKlEmB3kzj_DyNlmlu8Z-11" style="edgeStyle=orthogonalEdgeStyle;rounded=0;orthogonalLoop=1;jettySize=auto;html=1;entryX=0.5;entryY=0;entryDx=0;entryDy=0;" edge="1" parent="WIyWlLk6GJQsqaUBKTNV-1" source="WIyWlLk6GJQsqaUBKTNV-6">
          <mxGeometry relative="1" as="geometry">
            <mxPoint x="210" y="547" as="targetPoint" />
          </mxGeometry>
        </mxCell>
        <mxCell id="rKlEmB3kzj_DyNlmlu8Z-21" value="&amp;nbsp;Yes&amp;nbsp;" style="edgeLabel;html=1;align=center;verticalAlign=middle;resizable=0;points=[];" vertex="1" connectable="0" parent="rKlEmB3kzj_DyNlmlu8Z-11">
          <mxGeometry x="-0.2195" y="-1" relative="1" as="geometry">
            <mxPoint as="offset" />
          </mxGeometry>
        </mxCell>
        <mxCell id="rKlEmB3kzj_DyNlmlu8Z-12" style="edgeStyle=orthogonalEdgeStyle;rounded=0;orthogonalLoop=1;jettySize=auto;html=1;entryX=0.55;entryY=0;entryDx=0;entryDy=0;entryPerimeter=0;" edge="1" parent="WIyWlLk6GJQsqaUBKTNV-1" source="WIyWlLk6GJQsqaUBKTNV-6">
          <mxGeometry relative="1" as="geometry">
            <mxPoint x="617.0500000000002" y="543.25" as="targetPoint" />
          </mxGeometry>
        </mxCell>
        <mxCell id="rKlEmB3kzj_DyNlmlu8Z-22" value="&amp;nbsp;No&amp;nbsp;" style="edgeLabel;html=1;align=center;verticalAlign=middle;resizable=0;points=[];" vertex="1" connectable="0" parent="rKlEmB3kzj_DyNlmlu8Z-12">
          <mxGeometry x="-0.3494" y="-2" relative="1" as="geometry">
            <mxPoint as="offset" />
          </mxGeometry>
        </mxCell>
        <mxCell id="WIyWlLk6GJQsqaUBKTNV-6" value="Check For&lt;br&gt;Valid License" style="rhombus;whiteSpace=wrap;html=1;shadow=0;fontFamily=Helvetica;fontSize=12;align=center;strokeWidth=1;spacing=6;spacingTop=-4;" parent="WIyWlLk6GJQsqaUBKTNV-1" vertex="1">
          <mxGeometry x="355" y="442" width="110" height="90" as="geometry" />
        </mxCell>
        <mxCell id="WIyWlLk6GJQsqaUBKTNV-11" value="Program Starts Up" style="rounded=1;whiteSpace=wrap;html=1;fontSize=12;glass=0;strokeWidth=1;shadow=0;" parent="WIyWlLk6GJQsqaUBKTNV-1" vertex="1">
          <mxGeometry x="350" y="772" width="120" height="40" as="geometry" />
        </mxCell>
        <mxCell id="rKlEmB3kzj_DyNlmlu8Z-15" style="edgeStyle=orthogonalEdgeStyle;rounded=0;orthogonalLoop=1;jettySize=auto;html=1;exitX=0.5;exitY=1;exitDx=0;exitDy=0;entryX=0.5;entryY=0;entryDx=0;entryDy=0;" edge="1" parent="WIyWlLk6GJQsqaUBKTNV-1" target="rKlEmB3kzj_DyNlmlu8Z-10">
          <mxGeometry relative="1" as="geometry">
            <mxPoint x="210" y="587" as="sourcePoint" />
            <Array as="points">
              <mxPoint x="210" y="610" />
              <mxPoint x="410" y="610" />
            </Array>
          </mxGeometry>
        </mxCell>
        <mxCell id="WIyWlLk6GJQsqaUBKTNV-12" value="Hash License Details" style="rounded=1;whiteSpace=wrap;html=1;fontSize=12;glass=0;strokeWidth=1;shadow=0;" parent="WIyWlLk6GJQsqaUBKTNV-1" vertex="1">
          <mxGeometry x="186" y="547" width="120" height="40" as="geometry" />
        </mxCell>
        <mxCell id="rKlEmB3kzj_DyNlmlu8Z-13" style="edgeStyle=orthogonalEdgeStyle;rounded=0;orthogonalLoop=1;jettySize=auto;html=1;" edge="1" parent="WIyWlLk6GJQsqaUBKTNV-1" source="rKlEmB3kzj_DyNlmlu8Z-18">
          <mxGeometry relative="1" as="geometry">
            <mxPoint x="272" y="567" as="targetPoint" />
          </mxGeometry>
        </mxCell>
        <mxCell id="rKlEmB3kzj_DyNlmlu8Z-6" value="User Inputs&lt;br&gt;License Details" style="shape=parallelogram;perimeter=parallelogramPerimeter;whiteSpace=wrap;html=1;fixedSize=1;" vertex="1" parent="WIyWlLk6GJQsqaUBKTNV-1">
          <mxGeometry x="570" y="543.25" width="151" height="47.5" as="geometry" />
        </mxCell>
        <mxCell id="rKlEmB3kzj_DyNlmlu8Z-16" style="edgeStyle=orthogonalEdgeStyle;rounded=0;orthogonalLoop=1;jettySize=auto;html=1;exitX=1;exitY=0.5;exitDx=0;exitDy=0;entryX=0.5;entryY=1;entryDx=0;entryDy=0;" edge="1" parent="WIyWlLk6GJQsqaUBKTNV-1" source="rKlEmB3kzj_DyNlmlu8Z-10">
          <mxGeometry relative="1" as="geometry">
            <mxPoint x="609.5" y="590.75" as="targetPoint" />
          </mxGeometry>
        </mxCell>
        <mxCell id="rKlEmB3kzj_DyNlmlu8Z-23" value="&amp;nbsp;No&amp;nbsp;" style="edgeLabel;html=1;align=center;verticalAlign=middle;resizable=0;points=[];" vertex="1" connectable="0" parent="rKlEmB3kzj_DyNlmlu8Z-16">
          <mxGeometry x="-0.119" relative="1" as="geometry">
            <mxPoint as="offset" />
          </mxGeometry>
        </mxCell>
        <mxCell id="rKlEmB3kzj_DyNlmlu8Z-17" style="edgeStyle=orthogonalEdgeStyle;rounded=0;orthogonalLoop=1;jettySize=auto;html=1;exitX=0.5;exitY=1;exitDx=0;exitDy=0;entryX=0.5;entryY=0;entryDx=0;entryDy=0;" edge="1" parent="WIyWlLk6GJQsqaUBKTNV-1" source="rKlEmB3kzj_DyNlmlu8Z-10" target="WIyWlLk6GJQsqaUBKTNV-11">
          <mxGeometry relative="1" as="geometry" />
        </mxCell>
        <mxCell id="rKlEmB3kzj_DyNlmlu8Z-24" value="&amp;nbsp;Yes&amp;nbsp;" style="edgeLabel;html=1;align=center;verticalAlign=middle;resizable=0;points=[];" vertex="1" connectable="0" parent="rKlEmB3kzj_DyNlmlu8Z-17">
          <mxGeometry x="-0.175" relative="1" as="geometry">
            <mxPoint as="offset" />
          </mxGeometry>
        </mxCell>
        <mxCell id="rKlEmB3kzj_DyNlmlu8Z-10" value="Hash Match&lt;br&gt;The License" style="rounded=1;whiteSpace=wrap;html=1;" vertex="1" parent="WIyWlLk6GJQsqaUBKTNV-1">
          <mxGeometry x="350" y="632" width="120" height="60" as="geometry" />
        </mxCell>
        <mxCell id="rKlEmB3kzj_DyNlmlu8Z-19" value="" style="edgeStyle=orthogonalEdgeStyle;rounded=0;orthogonalLoop=1;jettySize=auto;html=1;exitX=0;exitY=0.5;exitDx=0;exitDy=0;" edge="1" parent="WIyWlLk6GJQsqaUBKTNV-1" source="rKlEmB3kzj_DyNlmlu8Z-6" target="rKlEmB3kzj_DyNlmlu8Z-18">
          <mxGeometry relative="1" as="geometry">
            <mxPoint x="272" y="567" as="targetPoint" />
            <mxPoint x="544" y="567" as="sourcePoint" />
          </mxGeometry>
        </mxCell>
        <mxCell id="rKlEmB3kzj_DyNlmlu8Z-18" value="Create License File" style="text;html=1;align=center;verticalAlign=middle;resizable=0;points=[];autosize=1;strokeColor=none;fillColor=none;" vertex="1" parent="WIyWlLk6GJQsqaUBKTNV-1">
          <mxGeometry x="345" y="552" width="130" height="30" as="geometry" />
        </mxCell>
      </root>
    </mxGraphModel>
  </diagram>
</mxfile>
